<?xml version="1.0" encoding="UTF-8" standalone="no"?>
<!-- Generator: Adobe Illustrator 17.1.0, SVG Export Plug-In . SVG Version: 6.00 Build 0)  -->

<svg
   xmlns:dc="http://purl.org/dc/elements/1.1/"
   xmlns:cc="http://creativecommons.org/ns#"
   xmlns:rdf="http://www.w3.org/1999/02/22-rdf-syntax-ns#"
   xmlns:svg="http://www.w3.org/2000/svg"
   xmlns="http://www.w3.org/2000/svg"
   xmlns:sodipodi="http://sodipodi.sourceforge.net/DTD/sodipodi-0.dtd"
   xmlns:inkscape="http://www.inkscape.org/namespaces/inkscape"
   version="1.1"
   id="Capa_1"
   x="0px"
   y="0px"
   viewBox="0 0 512.084 512.084"
   style="enable-background:new 0 0 512.084 512.084;"
   xml:space="preserve"
   inkscape:version="0.91 r13725"
   sodipodi:docname="favicon.svg"><metadata
     id="metadata49"><rdf:RDF><cc:Work
         rdf:about=""><dc:format>image/svg+xml</dc:format><dc:type
           rdf:resource="http://purl.org/dc/dcmitype/StillImage" /><dc:title></dc:title></cc:Work></rdf:RDF></metadata><defs
     id="defs47" /><sodipodi:namedview
     pagecolor="#ffffff"
     bordercolor="#666666"
     borderopacity="1"
     objecttolerance="10"
     gridtolerance="10"
     guidetolerance="10"
     inkscape:pageopacity="0"
     inkscape:pageshadow="2"
     inkscape:window-width="1440"
     inkscape:window-height="847"
     id="namedview45"
     showgrid="false"
     inkscape:zoom="0.4608619"
     inkscape:cx="256.04199"
     inkscape:cy="256.04199"
     inkscape:window-x="-8"
     inkscape:window-y="-8"
     inkscape:window-maximized="1"
     inkscape:current-layer="g3" /><g
     id="g3"><path
       d="M167.15,216.164c-0.049,0-0.099,0-0.147,0.001c-8.8,0.08-15.894,7.304-15.813,16.104   c0.08,8.751,7.223,15.814,15.957,15.814c0.049,0,0.099,0,0.147-0.001c8.8-0.08,15.894-7.304,15.813-16.104   C183.026,223.228,175.883,216.164,167.15,216.164z"
       id="path5"
       style="fill:#ff6600" /><path
       d="M342.107,214.573c-4.263,0.039-8.255,1.735-11.242,4.777c-2.987,3.042-4.611,7.064-4.572,11.327   c0.08,8.751,7.224,15.815,15.958,15.815c0.048,0,0.098,0,0.146-0.001c4.263-0.039,8.255-1.735,11.242-4.777   c2.987-3.042,4.61-7.063,4.571-11.326c-0.038-4.263-1.734-8.256-4.776-11.243C350.393,216.158,346.398,214.51,342.107,214.573z"
       id="path7"
       style="fill:#ff6600" /><path
       d="M480.906,179.737c-12.916-6.873-31.028-13.784-40.826-13.784c-0.062,0-0.125,0-0.186,0.001   c-8.059,0.073-14.814,5.083-21.347,9.927c-8.643,6.409-14.484,10.332-21.274,7.837c1.35-14.806,2.197-26.406,2.546-33.413   c20.855-5.981,84.437-25.571,102.658-46.921c10.36-12.139,12.352-32.31,5.919-59.952c-4.507-19.371-11.552-35.425-11.85-36.099   c-1.438-3.257-4.86-5.169-8.384-4.696c-3.528,0.475-6.319,3.224-6.846,6.745c-1.864,12.458-8.298,47.675-15.551,60.783   c-0.192,0.279-5.18,6.897-46.277,13.611c-21.942,3.585-42.933,5.338-43.143,5.356c-0.746,0.062-1.456,0.231-2.125,0.479   c-6.026-5.271-12.896-9.74-20.407-13.06c-25.323-11.193-67.129-15.181-97.811-15.181s-72.488,3.988-97.811,15.181   c-7.503,3.316-14.365,7.778-20.385,13.041c-0.653-0.237-1.344-0.4-2.07-0.46c-0.209-0.017-21.2-1.771-43.143-5.355   C51.498,77.063,46.51,70.445,46.351,70.222c-7.286-13.164-13.72-48.38-15.584-60.839c-0.527-3.521-3.317-6.271-6.846-6.745   c-3.529-0.477-6.946,1.439-8.384,4.696c-0.298,0.674-7.343,16.728-11.85,36.099c-6.432,27.642-4.44,47.813,5.919,59.952   c18.554,21.74,83.313,41.775,102.604,47.372c0.377,7.33,1.27,19.391,2.684,34.709c-7.046,3.181-13.063-0.662-22.126-7.131   c-6.62-4.725-13.5-9.588-21.524-9.538c-9.753,0.088-27.884,7.375-40.754,14.526C10.16,194.62-0.097,206.033,0.005,217.244   c0.142,15.645,29.841,35.235,56.406,43.033c9.444,2.772,18.441,4.136,26.836,4.135c15.304-0.001,28.579-4.557,38.86-13.349   c9.334,73.744,25.198,166.364,47.867,214.231c0.129,0.273,0.284,0.524,0.439,0.775c-0.906,10.113,2.057,20.16,8.504,28.264   c7.69,9.667,19.161,15.107,31.453,15.035l93.552,0.15c0.004,0,0.009,0,0.014,0c0.024,0,0.048,0,0.072,0   c12.353-0.112,23.747-5.801,31.26-15.606c6.754-8.815,9.465-19.792,7.691-30.606c22.403-48.903,38.053-141.372,47.221-214.466   c10.174,8.535,23.164,12.945,38.058,12.945c8.79,0,18.237-1.528,28.149-4.635c26.42-8.279,55.758-28.406,55.616-44.052   C511.901,201.888,501.439,190.664,480.906,179.737z M422.884,99.434c43.867-7.247,53.423-15.277,56.848-21.464   c4.726-8.538,8.755-23.017,11.745-36.266c0.484,1.819,0.95,3.683,1.388,5.575c5.013,21.676,4.105,37.913-2.557,45.719   c-13.036,15.275-63.388,32.591-90.855,40.744c-1.543-10.323-5.805-20.497-12.16-29.584   C395.853,103.264,409.099,101.711,422.884,99.434z M21.776,92.997c-6.662-7.806-7.569-24.042-2.557-45.719   c0.438-1.892,0.904-3.755,1.388-5.575c2.99,13.25,7.02,27.728,11.745,36.266c3.424,6.187,12.98,14.217,56.848,21.464   c13.747,2.271,26.958,3.822,35.521,4.716c-6.443,9.21-10.733,19.537-12.223,30.005C85.632,126.074,34.969,108.456,21.776,92.997z    M119.093,230.48c-6.799,10.375-20.701,21.704-48.318,16.781c-12.517-2.233-26.362-7.726-37.984-15.07   c-11.479-7.253-16.191-13.314-16.781-15.279c0.211-3.096,6.206-10.686,22.252-19.604c14.577-8.1,28.605-12.472,33.127-12.513   c0.011,0,0.021,0,0.031,0c2.859,0,7.743,3.485,12.052,6.562c8.417,6.008,19.532,13.931,33.011,10.481   c0.885,8.708,1.902,18.112,3.053,28.033C119.382,230.066,119.233,230.268,119.093,230.48z M322.567,484.18   c-4.487,5.857-11.289,9.259-18.665,9.338l-93.592-0.149c-7.385,0.052-14.27-3.211-18.872-8.997   c-4.602-5.785-6.25-13.225-4.523-20.412l6.217-25.867c1.072-4.458,2.987-8.51,5.538-11.99c0.559,2.822,1.574,5.365,2.842,7.387   c2.254,3.595,5.558,6.595,8.753,9.496c2.292,2.081,6.558,5.954,6.755,7.451c-0.003,0.015-0.431,1.609-4.593,4.508   c-3.625,2.526-4.517,7.512-1.991,11.137c1.555,2.232,4.042,3.427,6.571,3.427c1.579,0,3.173-0.466,4.566-1.437   c7.286-5.077,11.019-10.5,11.41-16.578c0.577-8.969-6.376-15.282-11.964-20.355c-2.393-2.173-4.868-4.42-5.952-6.148   c-0.849-1.355-1.364-4.559-0.121-7.052c1.616-3.242,5.855-4.355,9.296-4.707l63.237,0.395c3.5,0.25,7.986,1.248,9.716,4.565   c1.288,2.47,0.831,5.683,0.007,7.052c-1.049,1.743-3.352,3.986-5.578,6.156c-5.32,5.184-11.941,11.636-11.128,20.545   c0.557,6.1,4.449,11.492,11.899,16.484c1.367,0.916,2.915,1.355,4.446,1.355c2.579,0,5.11-1.245,6.653-3.548   c2.459-3.67,1.478-8.64-2.193-11.099c-4.393-2.943-4.868-4.629-4.871-4.629c0.076-1.525,4.32-5.661,6.36-7.648   c2.953-2.878,6.007-5.854,8.12-9.364c1.299-2.158,2.298-4.897,2.779-7.917c2.933,3.556,5.145,7.746,6.344,12.361l6.687,25.75   C328.577,470.844,327.064,478.313,322.567,484.18z M336.275,436.832l-0.757-2.914c-5.477-21.088-25.091-36.288-46.74-36.288   c-0.118,0-0.238,0-0.356,0.001l-64.098-0.401c-0.16-0.007-0.321-0.006-0.483-0.003l-0.564-0.004c-0.042,0-0.082,0-0.123,0   c-21.628,0.196-40.371,15.464-45.578,37.128l-1.097,4.564c-15.413-43.145-26.779-106.952-33.942-156.278   c-9.303-64.056-14.406-123.697-14.534-137.707c-0.002-0.254-0.019-0.504-0.044-0.751c-1.02-20.56,14.639-43.244,36.703-52.997   c18.986-8.392,54.84-13.815,91.342-13.815s72.355,5.423,91.342,13.815c21.394,9.457,36.767,31.072,36.751,51.119   c-0.266,1.071-0.311,2.208-0.103,3.35c-0.284,15.231-5.372,73.972-14.523,136.986C362.423,331.17,351.311,393.736,336.275,436.832z    M479.495,228.639c-11.487,7.554-25.229,13.298-37.704,15.758c-27.522,5.425-41.63-5.65-48.616-15.9   c-0.149-0.219-0.308-0.426-0.474-0.625c1.14-9.916,2.145-19.297,3.017-27.958c13.33,2.919,24.147-5.09,32.36-11.181   c4.269-3.166,9.108-6.754,11.962-6.78c0.022,0,0.045,0,0.067,0c4.594,0,18.633,4.113,33.282,11.909   c16.207,8.624,22.337,16.104,22.605,19.195C495.441,215.033,490.84,221.178,479.495,228.639z"
       id="path9"
       style="fill:#ff6600" /><path
       d="M331.146,116.693c2.985-3.257,2.765-8.318-0.493-11.303c-3.258-2.985-8.318-2.765-11.303,0.493   c-6.189,6.754-39.081,24.028-62.963,28.755l5.006-20.829c0.784-3.259-0.548-6.662-3.336-8.523c-2.789-1.862-6.44-1.787-9.151,0.186   c-12.25,8.919-61.951,30.912-98.545,31.245c-4.418,0.04-7.967,3.654-7.927,8.072c0.04,4.394,3.613,7.928,7.998,7.927   c0.024,0,0.05,0,0.074,0c30.515-0.277,68.308-13.85,91.053-24.853l-3.393,14.115c-0.576,2.395-0.016,4.922,1.518,6.85   c1.519,1.909,3.824,3.02,6.261,3.02c0.024,0,0.048,0,0.073,0C274.129,151.592,320.954,127.814,331.146,116.693z"
       id="path11"
       style="fill:#ff6600" /><path
       d="M333.503,151.053c1.594,0,3.205-0.475,4.606-1.464c7.124-5.028,16.346-16.292,17.375-17.561   c2.782-3.431,2.256-8.467-1.174-11.25c-3.431-2.785-8.469-2.258-11.252,1.172c-2.412,2.971-9.661,11.381-14.175,14.567   c-3.609,2.548-4.47,7.54-1.923,11.149C328.519,149.874,330.991,151.053,333.503,151.053z"
       id="path13"
       style="fill:#ff6600" /></g><g
     id="g15" /><g
     id="g17" /><g
     id="g19" /><g
     id="g21" /><g
     id="g23" /><g
     id="g25" /><g
     id="g27" /><g
     id="g29" /><g
     id="g31" /><g
     id="g33" /><g
     id="g35" /><g
     id="g37" /><g
     id="g39" /><g
     id="g41" /><g
     id="g43" /></svg>